<?xml version="1.0" standalone="no"?>
<!DOCTYPE svg PUBLIC "-//W3C//DTD SVG 20010904//EN"
 "http://www.w3.org/TR/2001/REC-SVG-20010904/DTD/svg10.dtd">
<svg version="1.0" xmlns="http://www.w3.org/2000/svg"
 width="359.000000pt" height="357.000000pt" viewBox="0 0 359.000000 357.000000"
 preserveAspectRatio="xMidYMid meet">
<metadata>
Created by potrace 1.15, written by Peter Selinger 2001-2017
</metadata>
<g transform="translate(0.000000,357.000000) scale(0.100000,-0.100000)"
fill="#000000" stroke="none">
<path d="M1720 3560 c-255 -32 -449 -241 -467 -502 -12 -171 37 -292 184 -450
111 -119 190 -226 257 -344 25 -45 46 -84 46 -87 0 -3 -19 -8 -43 -11 -148
-22 -301 -167 -323 -305 l-7 -41 -46 26 c-92 54 -239 171 -348 280 -151 149
-240 196 -398 210 -306 26 -575 -226 -575 -539 0 -138 58 -275 159 -376 107
-108 232 -161 378 -161 151 0 247 38 393 156 133 107 197 149 328 215 l115 58
28 -60 c52 -110 180 -207 296 -225 24 -3 43 -10 43 -14 0 -4 -29 -55 -64 -114
-71 -118 -141 -208 -256 -330 -134 -143 -173 -231 -174 -401 -1 -90 3 -122 22
-176 69 -199 229 -331 439 -360 335 -47 632 231 610 571 -10 149 -48 228 -192
395 -92 107 -168 220 -224 333 -42 83 -44 102 -13 102 31 0 136 57 183 98 52
46 105 139 115 200 l6 41 42 -21 c123 -62 259 -163 397 -294 143 -136 250
-184 413 -184 166 0 267 41 382 155 111 110 153 214 154 381 0 151 -50 274
-155 379 -105 105 -230 155 -385 155 -159 -1 -246 -37 -395 -165 -121 -103
-230 -178 -359 -246 -86 -45 -97 -49 -101 -32 -18 59 -73 148 -114 185 -47 41
-152 98 -183 98 -30 0 -29 18 3 82 72 144 135 236 270 391 42 49 91 117 108
150 35 69 61 176 61 253 0 71 -34 196 -72 263 -102 181 -324 288 -538 261z
m159 -1630 c135 -68 128 -231 -13 -296 -67 -31 -110 -30 -177 4 -95 48 -128
127 -88 209 52 102 171 138 278 83z"/>
</g>
</svg>
